<?xml version="1.0" encoding="utf-8"?>
<!-- Generator: Adobe Illustrator 27.0.1, SVG Export Plug-In . SVG Version: 6.00 Build 0)  -->
<svg version="1.1" id="Capa_1" xmlns="http://www.w3.org/2000/svg" xmlns:xlink="http://www.w3.org/1999/xlink" x="0px" y="0px"
	 viewBox="0 0 510.2 510.2" style="enable-background:new 0 0 510.2 510.2;" xml:space="preserve">
<style type="text/css">
	.st0{fill:#4C4BFA;}
	.st1{fill:#FFFFFF;}
</style>
<g>
	<g>
		<g>
			<path class="st0" d="M244.1,425.8l0-6.5l-37.4-0.1C218.7,422.8,231.2,425.1,244.1,425.8z"/>
			<path class="st0" d="M178.7,408.2l65.4,0.2l0-7.5l-78.9-0.2C169.6,403.4,174.1,405.9,178.7,408.2z"/>
			<path class="st0" d="M148.9,389.2l95.3,0.3l0-7l-103.5-0.3C143.4,384.6,146.1,386.9,148.9,389.2z"/>
			<path class="st0" d="M123.2,363.7c1.8,2.2,3.7,4.4,5.6,6.5l115.5,0.3l0-3.4c-5.2-0.7-10.3-1.7-15.3-3.1L123.2,363.7z"/>
			<path class="st0" d="M110,345.2c1.3,2,2.6,4.1,3.9,6l86.9,0.3c-3-1.9-5.9-3.9-8.7-6.1L110,345.2z"/>
			<path class="st0" d="M100.1,326.7c0.9,1.9,1.8,3.7,2.7,5.5l75.3,0.2c-1.6-1.8-3.2-3.6-4.8-5.6L100.1,326.7z"/>
			<path class="st0" d="M93,308.2c0.5,1.7,1.1,3.4,1.7,5.1l69.5,0.2c-1-1.7-1.9-3.3-2.8-5.1L93,308.2z"/>
			<path class="st0" d="M88.2,289.8c0.3,1.5,0.7,3,1,4.6l66.2,0.2c-0.5-1.5-1-3-1.5-4.6L88.2,289.8z"/>
			<path class="st0" d="M85.6,271.3c0.1,1.4,0.3,2.7,0.4,4.1l64.6,0.2c-0.2-1.3-0.4-2.7-0.6-4.1L85.6,271.3z"/>
			<path class="st0" d="M85,252.9c0,1-0.1,2-0.1,2.9c0,0.2,0,0.4,0,0.6l64.2,0.2c0-1.2,0.1-2.4,0.1-3.6L85,252.9z"/>
			<path class="st0" d="M86.3,234.5c-0.1,1-0.3,2.1-0.4,3.1l64.9,0.2c0.2-1,0.3-2.1,0.6-3.1L86.3,234.5z"/>
			<path class="st0" d="M89.7,216c-0.2,0.9-0.4,1.7-0.6,2.6l66.7,0.2c0.3-0.9,0.7-1.7,1-2.6L89.7,216z"/>
			<path class="st0" d="M245.1,88.1l-13,0c-8.2,1.1-16.2,2.8-24,5l37,0.1L245.1,88.1z"/>
			<path class="st0" d="M245.1,106.4l-69.8-0.2c-2.7,1.4-5.4,3-8,4.5L245,111L245.1,106.4z"/>
			<path class="st0" d="M245,124.7l-97.2-0.3c-1.6,1.3-3.3,2.7-4.9,4.1l102.1,0.3L245,124.7z"/>
			<path class="st0" d="M244.9,143.1l-116.4-0.3c-1.1,1.2-2.1,2.4-3.2,3.6l119.5,0.3L244.9,143.1z"/>
			<path class="st0" d="M114.2,161c-0.7,1-1.4,2-2.1,3.1l87.1,0.3c1.6-1.1,3.3-2.1,5-3.1L114.2,161z"/>
			<path class="st0" d="M103.4,179.3c-0.4,0.9-0.9,1.7-1.3,2.6l76.2,0.2c0.8-0.9,1.6-1.7,2.5-2.6L103.4,179.3z"/>
			<path class="st0" d="M95.4,197.6c-0.3,0.7-0.5,1.4-0.8,2.1l70.4,0.2c0.4-0.7,0.9-1.4,1.3-2.1L95.4,197.6z"/>
			<path class="st0" d="M272.8,86.8l0,6.5l37.4,0.1C298.3,89.9,285.8,87.6,272.8,86.8z"/>
			<path class="st0" d="M338.2,104.5l-65.4-0.2l0,7.5l78.9,0.2C347.3,109.3,342.8,106.8,338.2,104.5z"/>
			<path class="st0" d="M368,123.5l-95.3-0.3l0,7l103.5,0.3C373.6,128.1,370.8,125.8,368,123.5z"/>
			<path class="st0" d="M393.8,149c-1.8-2.2-3.7-4.4-5.6-6.5l-115.5-0.3l0,5.5c2.2,0.3,4.4,0.6,6.6,1.1L393.8,149z"/>
			<path class="st0" d="M324,168l83,0.2c-1.2-2.3-2.5-4.5-3.8-6.8l-88.3-0.3C318,163.3,321.1,165.6,324,168z"/>
			<path class="st0" d="M341.9,185.8l75,0.2c-0.9-1.9-1.8-3.7-2.7-5.5l-77.3-0.2C338.6,182,340.3,183.9,341.9,185.8z"/>
			<path class="st0" d="M354.5,204.2l69.5,0.2c-0.5-1.7-1.1-3.4-1.7-5.1l-70.7-0.2C352.6,200.8,353.5,202.5,354.5,204.2z"/>
			<path class="st0" d="M362.4,222.7l66.4,0.2c-0.3-1.5-0.7-3-1-4.6l-67-0.2C361.4,219.7,361.9,221.2,362.4,222.7z"/>
			<path class="st0" d="M366.7,241.2l64.7,0.2c-0.1-1.4-0.3-2.7-0.4-4.1l-64.9-0.2C366.3,238.4,366.5,239.8,366.7,241.2z"/>
			<path class="st0" d="M432.1,256.2l-64.2-0.2c0,0.6,0,1.1,0,1.7c0,0.6,0,1.3-0.1,1.9l64.2,0.2c0-1,0.1-2,0.1-2.9
				C432.1,256.6,432.1,256.4,432.1,256.2z"/>
			<path class="st0" d="M366,278.1l64.7,0.2c0.1-1,0.3-2.1,0.4-3.1l-64.5-0.2C366.3,276,366.1,277,366,278.1z"/>
			<path class="st0" d="M360.8,296.5l66.4,0.2c0.2-0.9,0.4-1.7,0.6-2.6l-66.1-0.2C361.5,294.7,361.2,295.6,360.8,296.5z"/>
			<path class="st0" d="M271.9,424.6l13,0c8.2-1.1,16.2-2.8,24-5l-37-0.1L271.9,424.6z"/>
			<path class="st0" d="M271.9,406.3l69.8,0.2c2.7-1.4,5.4-3,8-4.5l-77.7-0.2L271.9,406.3z"/>
			<path class="st0" d="M272,388l97.2,0.3c1.6-1.3,3.3-2.7,4.9-4.1L272,383.9L272,388z"/>
			<path class="st0" d="M272,367.2l0,2.4l116.4,0.3c1.1-1.2,2.1-2.4,3.2-3.6l-112.4-0.3C276.8,366.5,274.4,366.9,272,367.2z"/>
			<path class="st0" d="M316.1,351.4l86.6,0.3c0.7-1,1.4-2,2.1-3.1l-84.1-0.2C319.2,349.4,317.7,350.5,316.1,351.4z"/>
			<path class="st0" d="M338.2,333.2l75.4,0.2c0.4-0.9,0.9-1.7,1.3-2.6l-74.4-0.2C339.7,331.5,339,332.3,338.2,333.2z"/>
			<path class="st0" d="M352,314.9l69.6,0.2c0.3-0.7,0.5-1.4,0.8-2.1l-69.2-0.2C352.8,313.5,352.4,314.2,352,314.9z"/>
		</g>
		<g>
			<g>
				<path class="st1" d="M450,257.3h37.4c0-0.7,0-1.5,0-2.2H450C450,255.8,450,256.6,450,257.3z"/>
				<path class="st1" d="M412.3,140.1c0.4,0.6,0.9,1.2,1.3,1.8l30.2-22.2c-0.4-0.6-0.8-1.2-1.3-1.8L412.3,140.1z"/>
				<path class="st1" d="M371,414.1c-0.6,0.4-1.2,0.9-1.8,1.3l22,30.6c0.6-0.4,1.2-0.9,1.8-1.3L371,414.1z"/>
				<path class="st1" d="M315.1,69.5c0.7,0.2,1.4,0.5,2.1,0.7l11.5-36c-0.7-0.2-1.4-0.5-2.1-0.7L315.1,69.5z"/>
				<path class="st1" d="M440.9,315.7c-0.2,0.7-0.5,1.4-0.7,2.1l35.5,11.7c0.2-0.7,0.5-1.4,0.7-2.1L440.9,315.7z"/>
				<path class="st1" d="M440.2,194.6c0.2,0.7,0.5,1.4,0.7,2.1l35.5-11.7c-0.2-0.7-0.5-1.4-0.7-2.1L440.2,194.6z"/>
				<path class="st1" d="M317.2,442.3c-0.7,0.2-1.4,0.5-2.1,0.7l11.5,36c0.7-0.2,1.4-0.5,2.1-0.7L317.2,442.3z"/>
				<path class="st1" d="M369.2,97c0.6,0.4,1.2,0.9,1.8,1.3l22-30.6c-0.6-0.4-1.2-0.9-1.8-1.3L369.2,97z"/>
				<path class="st1" d="M413.6,370.5c-0.4,0.6-0.8,1.2-1.3,1.8l30.2,22.2c0.4-0.6,0.9-1.2,1.3-1.8L413.6,370.5z"/>
				<path class="st1" d="M291,25.1l-5.8,37.4c0.7,0.1,1.5,0.3,2.2,0.4l5.8-37.3C292.5,25.3,291.8,25.2,291,25.1z"/>
				<path class="st1" d="M447.4,287.7l36.9,5.9c0.1-0.7,0.3-1.5,0.4-2.2l-36.9-5.9C447.7,286.3,447.6,287,447.4,287.7z"/>
				<path class="st1" d="M428.2,166c0.3,0.7,0.7,1.3,1,2l33.3-17.2c-0.3-0.7-0.6-1.3-1-2L428.2,166z"/>
				<path class="st1" d="M345.4,430.2c-0.7,0.3-1.3,0.7-2,1l17,33.7c0.7-0.3,1.3-0.7,2-1L345.4,430.2z"/>
				<path class="st1" d="M343,81c0.7,0.3,1.3,0.7,2,1l16.9-33.7c-0.7-0.3-1.3-0.7-2-1L343,81z"/>
				<path class="st1" d="M429.5,344c-0.3,0.7-0.7,1.3-1,2l33.3,17.1c0.3-0.7,0.7-1.3,1-2L429.5,344z"/>
				<path class="st1" d="M447.4,224.2c0.1,0.7,0.3,1.5,0.4,2.2l36.9-6c-0.1-0.7-0.3-1.5-0.4-2.2L447.4,224.2z"/>
				<path class="st1" d="M287.9,449.6c-0.7,0.1-1.4,0.3-2.2,0.4l5.9,37.3c0.7-0.1,1.5-0.3,2.2-0.4L287.9,449.6z"/>
				<path class="st1" d="M392.3,116.7c0.5,0.5,1.1,1,1.6,1.6l26.4-26.8c-0.5-0.5-1.1-1-1.6-1.6L392.3,116.7z"/>
				<path class="st1" d="M394.2,393.8c-0.5,0.5-1,1.1-1.5,1.6l26.5,26.7c0.5-0.5,1-1.1,1.5-1.6L394.2,393.8z"/>
			</g>
			<g>
				<path class="st1" d="M67,257.3l0.1-5.6H22.9l0,4.3c0,0.4,0,0.9,0,1.3l0,3.3H67L67,257.3z"/>
				<polygon class="st1" points="100.7,365.7 65.1,391.9 70.3,399.2 106,373 				"/>
				<polygon class="st1" points="149.1,97.7 123.2,61.7 116,67 141.8,103 				"/>
				<polygon class="st1" points="180.6,480.3 189.1,483.1 202.7,440.7 194.2,437.9 				"/>
				<path class="st1" d="M77.7,192.4l-41.9-13.8l-1.3,4c-0.2,0.5-0.3,0.9-0.5,1.4l-1,3.2l41.9,13.8L77.7,192.4z"/>
				<polygon class="st1" points="74.9,311.4 33,325.2 35.7,333.7 77.7,319.9 				"/>
				<path class="st1" d="M202.7,71.6l-13.6-42.4l-3.2,1c-0.4,0.1-0.9,0.3-1.3,0.4l-4,1.3l13.6,42.4L202.7,71.6z"/>
				<polygon class="st1" points="141.8,409.3 115.9,445.4 123.2,450.6 149.1,414.6 				"/>
				<polygon class="st1" points="106,139.3 70.3,113.1 65.1,120.4 100.7,146.6 				"/>
				<path class="st1" d="M216.5,489.7l4.2,0.7c0.4,0.1,0.9,0.2,1.3,0.2l3.3,0.5l6.8-44l-8.8-1.4L216.5,489.7z"/>
				<path class="st1" d="M70,221.9l-43.6-6.9l-0.7,4.2c-0.1,0.4-0.2,0.9-0.2,1.3l-0.5,3.3l43.6,6.9L70,221.9z"/>
				<polygon class="st1" points="85.9,339.8 46.6,360.1 50.6,368.1 89.9,347.8 				"/>
				<polygon class="st1" points="174.7,82.6 154.6,43 146.7,47.1 166.7,86.7 				"/>
				<polygon class="st1" points="147.2,465.5 155.1,469.6 175.1,429.9 167.1,425.8 				"/>
				<polygon class="st1" points="89.6,164.9 50.3,144.7 46.3,152.8 85.6,172.9 				"/>
				<path class="st1" d="M68.6,282.1l-43.5,7l0.5,3.3c0.1,0.5,0.2,0.9,0.2,1.4l0.7,4.2l43.5-7L68.6,282.1z"/>
				<polygon class="st1" points="231.7,65.2 224.8,21.2 215.9,22.7 222.9,66.7 				"/>
				<polygon class="st1" points="119.7,389.3 88.6,420.9 95,427.2 126.1,395.7 				"/>
				<polygon class="st1" points="125.7,117 94.5,85.5 88.2,91.9 119.4,123.4 				"/>
				<path class="st1" d="M261.6,19.1h-3.4c-0.5,0-0.9,0-1.4,0l-4.2,0.1l0,44.5l8.9-0.1L261.6,19.1z"/>
				<path class="st1" d="M255.3,452.1l0,37.8c0.7,0,1.5,0,2.2,0l0-37.8C256.8,452.1,256.1,452.1,255.3,452.1z"/>
			</g>
		</g>
	</g>
</g>
</svg>
