<?xml version="1.0" encoding="utf-8"?>
<!-- Generator: Adobe Illustrator 27.0.1, SVG Export Plug-In . SVG Version: 6.00 Build 0)  -->
<svg version="1.1" id="Capa_1" xmlns="http://www.w3.org/2000/svg" xmlns:xlink="http://www.w3.org/1999/xlink" x="0px" y="0px"
	 viewBox="0 0 526.2 637.8" style="enable-background:new 0 0 526.2 637.8;" xml:space="preserve">
<style type="text/css">
	.st0{fill:#FFFFFF;}
	.st1{fill:#4C4BFA;}
</style>
<g>
	<g>
		<path class="st0" d="M36.6,600.2H23.8v23.3h-9.6v-61.3h23c7.3,0,12.8,2,16.2,5.9c3.1,3.6,4.6,7.9,4.6,13c0,4-1,7.6-3.1,10.6
			s-5.1,5.2-9,6.6l13.6,25.2H48.9L36.6,600.2z M23.8,591.5h12.4c4.3,0,7.3-1,9.3-3c1.9-2,2.9-4.4,2.9-7.2c0-6.8-4-10.3-12.1-10.3
			H23.8V591.5z"/>
		<path class="st0" d="M66.3,592.9c0-4.4,0.8-8.6,2.5-12.4c1.6-3.9,3.8-7.3,6.7-10.1c2.7-2.8,6.1-5,10.1-6.6
			c3.8-1.7,7.8-2.5,12.2-2.5c5.7,0,10.9,1.4,15.8,4.1c4.8,2.7,8.6,6.5,11.4,11.4c2.8,4.8,4.2,10.2,4.2,16c0,4.4-0.8,8.6-2.5,12.5
			c-1.7,4-3.9,7.3-6.7,10c-2.9,2.8-6.2,5-10.1,6.6c-4,1.6-8.1,2.4-12.3,2.4c-4.2,0-8.3-0.8-12.2-2.4c-3.8-1.5-7.1-3.6-10-6.4
			c-2.7-2.7-5-6.1-6.6-10C67.1,601.5,66.3,597.4,66.3,592.9z M76.4,592.8c-0.1,6.1,1.9,11.4,6.2,15.9c4.2,4.5,9.3,6.7,15.2,6.6
			c5.9,0,11-2.2,15.2-6.6c4.1-4.4,6.1-9.7,6.1-15.9c0-4.1-0.9-7.9-2.8-11.4c-1.9-3.4-4.5-6.1-7.8-8.2c-3.3-2-6.9-3-10.8-3
			c-5.9-0.1-10.9,2.1-15.2,6.6C78.4,581.3,76.3,586.6,76.4,592.8z"/>
		<path class="st0" d="M141.5,562.1H165c5.9,0,10.7,1.4,14.3,4.3c3.6,2.9,5.4,6.9,5.4,11.9c0,2.1-0.6,4.3-1.7,6.6
			c-1.3,2.9-3.7,5.1-7.1,6.6c4.4,1.4,7.5,3.6,9.3,6.7c1.5,2.7,2.3,5.4,2.3,8.1c0,5.1-1.9,9.3-5.6,12.4c-3.8,3.1-9.2,4.7-16.2,4.7
			h-24.1L141.5,562.1L141.5,562.1z M151,588.1h12.1c4,0,7-0.8,8.9-2.5c2-1.7,3-3.8,3-6.3c0-2.6-1-4.7-2.9-6.2s-4.8-2.3-8.6-2.3H151
			V588.1z M151.1,614.8h14.7c3.8,0,6.8-0.8,8.9-2.5c2.1-1.7,3.2-3.9,3.2-6.8c0-2.7-1.1-4.9-3.2-6.6c-2.2-1.6-5.3-2.4-9.4-2.4h-14.1
			L151.1,614.8L151.1,614.8z"/>
		<path class="st0" d="M195.6,592.9c0-4.4,0.8-8.6,2.5-12.4c1.6-3.9,3.8-7.3,6.7-10.1c2.7-2.8,6.1-5,10.1-6.6
			c3.8-1.7,7.8-2.5,12.2-2.5c5.7,0,10.9,1.4,15.8,4.1c4.8,2.7,8.6,6.5,11.4,11.4c2.8,4.8,4.2,10.2,4.2,16c0,4.4-0.8,8.6-2.5,12.5
			s-3.9,7.3-6.7,10c-2.9,2.8-6.2,5-10.1,6.6c-4,1.6-8.1,2.4-12.3,2.4s-8.3-0.8-12.2-2.4c-3.8-1.5-7.1-3.6-10-6.4
			c-2.7-2.7-5-6.1-6.6-10C196.5,601.5,195.6,597.4,195.6,592.9z M205.7,592.8c-0.1,6.1,1.9,11.4,6.2,15.9c4.2,4.5,9.3,6.7,15.2,6.6
			c5.9,0,11-2.2,15.2-6.6c4.1-4.4,6.1-9.7,6.1-15.9c0-4.1-0.9-7.9-2.8-11.4c-1.9-3.4-4.5-6.1-7.8-8.2c-3.3-2-6.9-3-10.8-3
			c-5.9-0.1-10.9,2.1-15.2,6.6C207.7,581.3,205.6,586.6,205.7,592.8z"/>
		<path class="st0" d="M278,623.4V571h-19.5v-8.9h48.6v8.9h-19.5v52.4H278z"/>
		<path class="st1" d="M360.2,581.2c0,5.4-1.9,10-5.7,13.7c-4,3.9-9.6,5.8-16.9,5.8h-10.9v22.7h-9.6v-61.3h21.7
			c8.6,0,14.7,2.7,18.3,8.2C359.2,573.6,360.2,577.2,360.2,581.2z M350.5,581.4c0-2.8-1-5.2-2.9-7.3c-1.9-2-5.1-3.1-9.7-3.1h-11.3
			v20.9h11.3c4.5,0,7.7-1.1,9.8-3.4C349.5,586.3,350.5,584,350.5,581.4z"/>
		<path class="st1" d="M371.1,562.1h39.3v8.7h-29.7v17h27v8.7h-27v18.1h29.9v8.7h-39.5L371.1,562.1L371.1,562.1z"/>
		<path class="st1" d="M446.1,600.2h-12.8v23.3h-9.6v-61.3h23c7.3,0,12.8,2,16.2,5.9c3.1,3.6,4.6,7.9,4.6,13c0,4-1,7.6-3.1,10.6
			s-5.1,5.2-9,6.6l13.6,25.2h-10.7L446.1,600.2z M433.3,591.5h12.4c4.3,0,7.3-1,9.3-3c1.9-2,2.9-4.4,2.9-7.2c0-6.8-4-10.3-12.1-10.3
			h-12.4L433.3,591.5L433.3,591.5z"/>
		<path class="st1" d="M490.3,588.8h27.2v8.9h-27.2v25.7h-9.6v-61.3h39.1v8.9h-29.5V588.8z"/>
	</g>
	<g>
		<g>
			<path class="st1" d="M249.3,420.3v-6.5l-37.4-0.1C223.9,417.2,236.4,419.5,249.3,420.3z"/>
			<path class="st1" d="M183.9,402.7l65.4,0.2v-7.5l-78.9-0.2C174.8,397.9,179.3,400.4,183.9,402.7z"/>
			<path class="st1" d="M154.1,383.7l95.3,0.3v-7l-103.5-0.3C148.6,379.1,151.3,381.4,154.1,383.7z"/>
			<path class="st1" d="M128.4,358.1c1.8,2.2,3.7,4.4,5.6,6.5l115.5,0.3v-3.4c-5.2-0.7-10.3-1.7-15.3-3.1L128.4,358.1z"/>
			<path class="st1" d="M115.2,339.7c1.3,2,2.6,4.1,3.9,6L206,346c-3-1.9-5.9-3.9-8.7-6.1L115.2,339.7z"/>
			<path class="st1" d="M105.3,321.2c0.9,1.9,1.8,3.7,2.7,5.5l75.3,0.2c-1.6-1.8-3.2-3.6-4.8-5.6L105.3,321.2z"/>
			<path class="st1" d="M98.2,302.7c0.5,1.7,1.1,3.4,1.7,5.1l69.5,0.2c-1-1.7-1.9-3.3-2.8-5.1L98.2,302.7z"/>
			<path class="st1" d="M93.4,284.3c0.3,1.5,0.7,3,1,4.6l66.2,0.2c-0.5-1.5-1-3-1.5-4.6L93.4,284.3z"/>
			<path class="st1" d="M90.8,265.8c0.1,1.4,0.3,2.7,0.4,4.1l64.6,0.2c-0.2-1.3-0.4-2.7-0.6-4.1L90.8,265.8z"/>
			<path class="st1" d="M90.2,247.4c0,1-0.1,2-0.1,2.9c0,0.2,0,0.4,0,0.6l64.2,0.2c0-1.2,0.1-2.4,0.1-3.6L90.2,247.4z"/>
			<path class="st1" d="M91.5,228.9c-0.1,1-0.3,2.1-0.4,3.1l64.9,0.2c0.2-1,0.3-2.1,0.6-3.1L91.5,228.9z"/>
			<path class="st1" d="M94.9,210.5c-0.2,0.9-0.4,1.7-0.6,2.6l66.7,0.2c0.3-0.9,0.7-1.7,1-2.6L94.9,210.5z"/>
			<path class="st1" d="M250.3,82.6h-13c-8.2,1.1-16.2,2.8-24,5l37,0.1V82.6z"/>
			<path class="st1" d="M250.2,100.9l-69.8-0.2c-2.7,1.4-5.4,3-8,4.5l77.7,0.2L250.2,100.9z"/>
			<path class="st1" d="M250.2,119.2l-97.2-0.3c-1.6,1.3-3.3,2.7-4.9,4.1l102.1,0.3L250.2,119.2z"/>
			<path class="st1" d="M250.1,137.5l-116.4-0.3c-1.1,1.2-2.1,2.4-3.2,3.6l119.5,0.3L250.1,137.5z"/>
			<path class="st1" d="M119.4,155.5c-0.7,1-1.4,2-2.1,3.1l87.1,0.3c1.6-1.1,3.3-2.1,5-3.1L119.4,155.5z"/>
			<path class="st1" d="M108.6,173.8c-0.4,0.9-0.9,1.7-1.3,2.6l76.2,0.2c0.8-0.9,1.6-1.7,2.5-2.6L108.6,173.8z"/>
			<path class="st1" d="M100.6,192.1c-0.3,0.7-0.5,1.4-0.8,2.1l70.4,0.2c0.4-0.7,0.9-1.4,1.3-2.1L100.6,192.1z"/>
			<path class="st1" d="M278,81.3v6.5l37.4,0.1C303.5,84.4,291,82.1,278,81.3z"/>
			<path class="st1" d="M343.4,99L278,98.8v7.5l78.9,0.2C352.5,103.8,348,101.3,343.4,99z"/>
			<path class="st1" d="M373.2,118l-95.3-0.3v7l103.5,0.3C378.8,122.6,376,120.2,373.2,118z"/>
			<path class="st1" d="M399,143.5c-1.8-2.2-3.7-4.4-5.6-6.5l-115.5-0.3v5.5c2.2,0.3,4.4,0.6,6.6,1.1L399,143.5z"/>
			<path class="st1" d="M329.2,162.5l83,0.2c-1.2-2.3-2.5-4.5-3.8-6.8l-88.3-0.3C323.2,157.8,326.2,160,329.2,162.5z"/>
			<path class="st1" d="M347.1,180.2l75,0.2c-0.9-1.9-1.8-3.7-2.7-5.5l-77.3-0.2C343.8,176.5,345.5,178.3,347.1,180.2z"/>
			<path class="st1" d="M359.7,198.7l69.5,0.2c-0.5-1.7-1.1-3.4-1.7-5.1l-70.7-0.2C357.8,195.3,358.7,197,359.7,198.7z"/>
			<path class="st1" d="M367.6,217.2l66.4,0.2c-0.3-1.5-0.7-3-1-4.6l-67-0.2C366.6,214.1,367.1,215.6,367.6,217.2z"/>
			<path class="st1" d="M371.9,235.6l64.7,0.2c-0.1-1.4-0.3-2.7-0.4-4.1l-64.9-0.2C371.5,232.9,371.7,234.3,371.9,235.6z"/>
			<path class="st1" d="M437.2,250.7l-64.2-0.2c0,0.6,0,1.1,0,1.7c0,0.6,0,1.3-0.1,1.9l64.2,0.2c0-1,0.1-2,0.1-2.9
				C437.3,251.1,437.2,250.9,437.2,250.7z"/>
			<path class="st1" d="M371.1,272.5l64.7,0.2c0.1-1,0.3-2.1,0.4-3.1l-64.5-0.2C371.5,270.5,371.3,271.5,371.1,272.5z"/>
			<path class="st1" d="M366,291l66.4,0.2c0.2-0.9,0.4-1.7,0.6-2.6l-66.1-0.2C366.7,289.2,366.4,290.1,366,291z"/>
			<path class="st1" d="M277.1,419.1h13c8.2-1.1,16.2-2.8,24-5l-37-0.1V419.1z"/>
			<path class="st1" d="M277.1,400.8l69.8,0.2c2.7-1.4,5.4-3,8-4.5l-77.7-0.2L277.1,400.8z"/>
			<path class="st1" d="M277.2,382.4l97.2,0.3c1.6-1.3,3.3-2.7,4.9-4.1l-102.1-0.3V382.4z"/>
			<path class="st1" d="M277.2,361.7v2.4l116.4,0.3c1.1-1.2,2.1-2.4,3.2-3.6l-112.4-0.3C282,361,279.6,361.4,277.2,361.7z"/>
			<path class="st1" d="M321.3,345.9l86.6,0.3c0.7-1,1.4-2,2.1-3.1l-84.1-0.2C324.4,343.9,322.9,344.9,321.3,345.9z"/>
			<path class="st1" d="M343.4,327.7l75.4,0.2c0.4-0.9,0.9-1.7,1.3-2.6l-74.4-0.2C344.9,325.9,344.2,326.8,343.4,327.7z"/>
			<path class="st1" d="M357.2,309.4l69.6,0.2c0.3-0.7,0.5-1.4,0.8-2.1l-69.2-0.2C358,308,357.6,308.7,357.2,309.4z"/>
		</g>
		<g>
			<g>
				<path class="st0" d="M455.1,251.8h37.4c0-0.7,0-1.5,0-2.2h-37.4C455.2,250.3,455.2,251.1,455.1,251.8z"/>
				<path class="st0" d="M417.5,134.6c0.4,0.6,0.9,1.2,1.3,1.8l30.2-22.2c-0.4-0.6-0.8-1.2-1.3-1.8L417.5,134.6z"/>
				<path class="st0" d="M376.2,408.6c-0.6,0.4-1.2,0.9-1.8,1.3l22,30.6c0.6-0.4,1.2-0.9,1.8-1.3L376.2,408.6z"/>
				<path class="st0" d="M320.3,63.9c0.7,0.2,1.4,0.5,2.1,0.7l11.5-36c-0.7-0.2-1.4-0.5-2.1-0.7L320.3,63.9z"/>
				<path class="st0" d="M446.1,310.2c-0.2,0.7-0.5,1.4-0.7,2.1l35.5,11.7c0.2-0.7,0.5-1.4,0.7-2.1L446.1,310.2z"/>
				<path class="st0" d="M445.4,189.1c0.2,0.7,0.5,1.4,0.7,2.1l35.5-11.7c-0.2-0.7-0.5-1.4-0.7-2.1L445.4,189.1z"/>
				<path class="st0" d="M322.4,436.7c-0.7,0.2-1.4,0.5-2.1,0.7l11.5,36c0.7-0.2,1.4-0.5,2.1-0.7L322.4,436.7z"/>
				<path class="st0" d="M374.4,91.5c0.6,0.4,1.2,0.9,1.8,1.3l22-30.6c-0.6-0.4-1.2-0.9-1.8-1.3L374.4,91.5z"/>
				<path class="st0" d="M418.8,365c-0.4,0.6-0.8,1.2-1.3,1.8l30.2,22.2c0.4-0.6,0.9-1.2,1.3-1.8L418.8,365z"/>
				<path class="st0" d="M296.2,19.6L290.4,57c0.7,0.1,1.5,0.3,2.2,0.4l5.8-37.3C297.7,19.8,297,19.7,296.2,19.6z"/>
				<path class="st0" d="M452.6,282.2l36.9,5.9c0.1-0.7,0.3-1.5,0.4-2.2L453,280C452.9,280.7,452.8,281.5,452.6,282.2z"/>
				<path class="st0" d="M433.4,160.5c0.3,0.7,0.7,1.3,1,2l33.3-17.2c-0.3-0.7-0.6-1.3-1-2L433.4,160.5z"/>
				<path class="st0" d="M350.6,424.7c-0.7,0.3-1.3,0.7-2,1l17,33.7c0.7-0.3,1.3-0.7,2-1L350.6,424.7z"/>
				<path class="st0" d="M348.2,75.4c0.7,0.3,1.3,0.7,2,1l16.9-33.7c-0.7-0.3-1.3-0.7-2-1L348.2,75.4z"/>
				<path class="st0" d="M434.7,338.4c-0.3,0.7-0.7,1.3-1,2l33.3,17.1c0.3-0.7,0.7-1.3,1-2L434.7,338.4z"/>
				<path class="st0" d="M452.6,218.7c0.1,0.7,0.3,1.5,0.4,2.2l36.9-6c-0.1-0.7-0.3-1.5-0.4-2.2L452.6,218.7z"/>
				<path class="st0" d="M293.1,444c-0.7,0.1-1.4,0.3-2.2,0.4l5.9,37.3c0.7-0.1,1.5-0.3,2.2-0.4L293.1,444z"/>
				<path class="st0" d="M397.5,111.2c0.5,0.5,1.1,1,1.6,1.6L425.4,86c-0.5-0.5-1.1-1-1.6-1.6L397.5,111.2z"/>
				<path class="st0" d="M399.4,388.3c-0.5,0.5-1,1.1-1.5,1.6l26.5,26.7c0.5-0.5,1-1.1,1.5-1.6L399.4,388.3z"/>
			</g>
			<g>
				<path class="st0" d="M72.2,251.7l0.1-5.6H28.1v4.3c0,0.4,0,0.9,0,1.3v3.3h44.1V251.7z"/>
				<polygon class="st0" points="105.9,360.2 70.3,386.4 75.5,393.6 111.2,367.4 				"/>
				<polygon class="st0" points="154.3,92.2 128.4,56.2 121.2,61.5 147,97.5 				"/>
				<polygon class="st0" points="185.8,474.8 194.3,477.6 207.9,435.2 199.4,432.4 				"/>
				<path class="st0" d="M82.9,186.9L41,173.1l-1.3,4c-0.2,0.5-0.3,0.9-0.5,1.4l-1,3.2l41.9,13.8L82.9,186.9z"/>
				<polygon class="st0" points="80.1,305.9 38.2,319.7 40.9,328.2 82.9,314.4 				"/>
				<path class="st0" d="M207.9,66l-13.6-42.4l-3.2,1c-0.4,0.1-0.9,0.3-1.3,0.4l-4,1.3l13.6,42.4L207.9,66z"/>
				<polygon class="st0" points="147,403.8 121.1,439.8 128.4,445.1 154.2,409.1 				"/>
				<polygon class="st0" points="111.1,133.8 75.5,107.6 70.3,114.9 105.9,141.1 				"/>
				<path class="st0" d="M221.7,484.2l4.2,0.7c0.4,0.1,0.9,0.2,1.3,0.2l3.3,0.5l6.8-44l-8.8-1.4L221.7,484.2z"/>
				<path class="st0" d="M75.2,216.3l-43.6-6.9l-0.7,4.2c-0.1,0.4-0.2,0.9-0.2,1.3l-0.5,3.3l43.6,6.9L75.2,216.3z"/>
				<polygon class="st0" points="91.1,334.3 51.8,354.6 55.8,362.6 95.1,342.3 				"/>
				<polygon class="st0" points="179.9,77.1 159.8,37.5 151.9,41.6 171.9,81.2 				"/>
				<polygon class="st0" points="152.4,460 160.3,464.1 180.3,424.4 172.3,420.3 				"/>
				<polygon class="st0" points="94.8,159.4 55.5,139.2 51.5,147.2 90.8,167.4 				"/>
				<path class="st0" d="M73.8,276.6l-43.5,7l0.5,3.3c0.1,0.5,0.2,0.9,0.2,1.4l0.7,4.2l43.5-7L73.8,276.6z"/>
				<polygon class="st0" points="236.9,59.7 230,15.7 221.1,17.2 228.1,61.2 				"/>
				<polygon class="st0" points="124.9,383.8 93.8,415.3 100.1,421.7 131.3,390.1 				"/>
				<polygon class="st0" points="130.9,111.5 99.7,80 93.4,86.4 124.6,117.8 				"/>
				<path class="st0" d="M266.8,13.6h-3.4c-0.5,0-0.9,0-1.4,0l-4.2,0.1v44.5l8.9-0.1L266.8,13.6z"/>
				<path class="st0" d="M260.5,446.6v37.8c0.7,0,1.5,0,2.2,0v-37.8C262,446.5,261.3,446.6,260.5,446.6z"/>
			</g>
		</g>
	</g>
</g>
</svg>
